<?xml version="1.0" encoding="utf-8"?>
<!-- Generator: Adobe Illustrator 23.0.1, SVG Export Plug-In . SVG Version: 6.00 Build 0)  -->
<svg version="1.1" id="Capa_1" xmlns="http://www.w3.org/2000/svg" xmlns:xlink="http://www.w3.org/1999/xlink" x="0px" y="0px"
	 viewBox="0 0 63 58" style="enable-background:new 0 0 63 58;" xml:space="preserve">
<style type="text/css">
	.st0{fill:#0D8ACD;}
</style>
<g>
	<g>
		<path class="st0" d="M51.3,38.32c-0.28-0.11-0.59-0.05-0.8,0.16l-8.05,8.05c-0.21,0.21-0.27,0.53-0.16,0.8
			c0.11,0.28,0.38,0.45,0.68,0.45h8.05c0.41,0,0.74-0.33,0.74-0.74V39C51.76,38.7,51.58,38.43,51.3,38.32z M44.75,46.31l5.53-5.53
			v5.53H44.75z"/>
	</g>
</g>
<g>
	<g>
		<path class="st0" d="M56.63,26.52c-0.28-0.11-0.59-0.05-0.8,0.16l-2.21,2.21V13.89c0-0.41-0.33-0.74-0.74-0.74h-5.66l2.05-2.05
			c0,0,0,0,0,0l1.98-1.98c0.42-0.42,0.66-0.99,0.66-1.59s-0.23-1.16-0.66-1.59l-2.29-2.29C48.55,3.23,47.98,3,47.38,3
			s-1.16,0.23-1.59,0.66l-1.98,1.98l-2.39,2.39l-5.12,5.12H13.45V5.87c0-0.41-0.33-0.74-0.74-0.74c-3.19,0-5.79,2.6-5.79,5.79v31.27
			c0,0.05,0.01,0.11,0.02,0.16c0.1,1.35,0.69,2.61,1.67,3.57c1.05,1.02,2.43,1.58,3.89,1.58h22.5l-4.24,4.24
			c-0.21,0.21-0.27,0.53-0.16,0.8c0.11,0.28,0.38,0.45,0.68,0.45h25.07c0.41,0,0.74-0.33,0.74-0.74V27.2
			C57.08,26.9,56.9,26.63,56.63,26.52z M46.84,4.7c0.3-0.3,0.79-0.3,1.09,0l2.29,2.29c0.3,0.3,0.3,0.79,0,1.09l-1.46,1.46
			l-3.38-3.38L46.84,4.7z M44.34,7.2l3.38,3.38l-1.35,1.35l-3.38-3.38L44.34,7.2z M55.61,35.47h-1.36c-0.41,0-0.74,0.33-0.74,0.74
			c0,0.41,0.33,0.74,0.74,0.74h1.36v2.22h-1.36c-0.41,0-0.74,0.33-0.74,0.74c0,0.41,0.33,0.74,0.74,0.74h1.36v2.22h-1.36
			c-0.41,0-0.74,0.33-0.74,0.74c0,0.41,0.33,0.74,0.74,0.74h1.36v2.22h-1.36c-0.41,0-0.74,0.33-0.74,0.74
			c0,0.41,0.33,0.74,0.74,0.74h1.36v3.51H33.06l7.44-7.44c0.29-0.29,0.29-0.75,0-1.04c-0.03-0.03-0.07-0.06-0.11-0.09
			c-0.29-0.2-0.68-0.17-0.94,0.09l-2.98,2.98H12.5c-2.23,0-4.03-1.74-4.1-3.97c0-0.14,0.02-0.28,0.03-0.42c0,0,0,0,0,0
			c0.01-0.07,0.02-0.13,0.03-0.19c0-0.01,0-0.01,0-0.02c0.01-0.06,0.02-0.11,0.03-0.17c0-0.02,0.01-0.03,0.01-0.05
			c0.01-0.05,0.02-0.1,0.04-0.14c0.01-0.03,0.01-0.05,0.02-0.08c0.01-0.04,0.02-0.07,0.03-0.11c0.01-0.04,0.02-0.07,0.04-0.11
			c0.01-0.03,0.02-0.05,0.03-0.08c0.02-0.05,0.04-0.1,0.06-0.14c0.01-0.01,0.01-0.03,0.02-0.04c0.03-0.06,0.05-0.12,0.08-0.17
			c0,0,0,0,0-0.01c0.58-1.19,1.68-2.08,3.01-2.36c0,0,0.01,0,0.01,0c0.06-0.01,0.12-0.02,0.18-0.03c0.01,0,0.02,0,0.03-0.01
			c0.06-0.01,0.11-0.02,0.17-0.02c0.02,0,0.03,0,0.05-0.01c0.05-0.01,0.11-0.01,0.16-0.01c0.02,0,0.03,0,0.05,0
			c0.07,0,0.14-0.01,0.22-0.01c0.41,0,0.74-0.33,0.74-0.74V31.8c0-0.41-0.33-0.74-0.74-0.74s-0.74,0.33-0.74,0.74v4.65
			c-1.24,0.16-2.4,0.71-3.31,1.6c-0.1,0.09-0.19,0.19-0.27,0.29V10.92c0-2.13,1.55-3.9,3.58-4.26v7.22v14.97v0
			c0,0.41,0.33,0.74,0.74,0.74s0.74-0.33,0.74-0.74v0V14.62h21.38l-4.07,4.07c-0.29,0.29-0.29,0.75,0,1.04
			c0.29,0.29,0.75,0.29,1.04,0l5.33-5.33c0,0,0,0,0,0l4.82-4.82l3.38,3.38l-0.4,0.4c0,0,0,0,0,0L30.08,28.21l-3.38-3.38l2.93-2.93
			c0.29-0.29,0.29-0.75,0-1.04c-0.29-0.29-0.75-0.29-1.04,0l-3.45,3.45c-0.02,0.02-0.04,0.04-0.05,0.06
			c-0.01,0.01-0.01,0.01-0.02,0.02c-0.01,0.01-0.02,0.03-0.03,0.04c-0.01,0.01-0.01,0.02-0.02,0.03c-0.01,0.01-0.02,0.03-0.02,0.04
			c0,0.01-0.01,0.02-0.01,0.03c-0.01,0.01-0.01,0.03-0.02,0.04c0,0.01,0,0.01-0.01,0.02l-1.43,4.06l-0.98,2.77
			c-0.01,0.04-0.02,0.07-0.03,0.11h-2.45c-0.41,0-0.74,0.33-0.74,0.74c0,0.41,0.33,0.74,0.74,0.74h20.39c0.41,0,0.74-0.33,0.74-0.74
			c0-0.41-0.33-0.74-0.74-0.74H25.84l4.49-1.58c0,0,0.01,0,0.01,0c0.02-0.01,0.03-0.01,0.05-0.02c0.01,0,0.01-0.01,0.02-0.01
			c0.02-0.01,0.03-0.02,0.05-0.03c0.01,0,0.01-0.01,0.02-0.01c0.02-0.01,0.03-0.02,0.05-0.04c0,0,0.01-0.01,0.01-0.01
			c0.02-0.02,0.04-0.03,0.06-0.05l15.15-15.15h6.39v15.73L41.61,40.89c-0.29,0.29-0.29,0.75,0,1.04c0.02,0.02,0.04,0.03,0.06,0.05
			c0.14,0.11,0.3,0.17,0.46,0.17s0.33-0.06,0.46-0.17c0.02-0.02,0.04-0.03,0.06-0.05c0,0,0,0,0,0l12.95-12.95V35.47z M28.74,28.95
			l-2.11,0.74l-1.41-1.41l0.74-2.11L28.74,28.95z"/>
	</g>
</g>
</svg>
